<?xml version="1.0" ?><svg height="512" preserveAspectRatio="xMidYMid" viewBox="0 0 512 512" width="512" xmlns="http://www.w3.org/2000/svg" xmlns:xlink="http://www.w3.org/1999/xlink"><defs><style>
      .cls-1 {
        fill: #3498db;
      }

      .cls-2 {
        fill: #000;
        opacity: 0.3;
      }

      .cls-2, .cls-3 {
        fill-rule: evenodd;
      }

      .cls-3 {
        fill: #fff;
      }
    </style></defs><g><circle class="cls-1" cx="256" cy="256" r="256"/><path class="cls-2" d="M166.438,183.161 L3.539,298.664 C23.851,419.741 129.151,512.000 256.000,512.000 C260.507,512.000 264.987,511.884 269.436,511.653 L384.203,329.109 L380.000,221.000 L317.000,219.000 L292.937,245.149 L244.000,219.000 L229.000,232.000 L217.000,221.000 L232.000,208.000 L206.000,183.000 L187.266,197.121 L166.438,183.161 Z"/><path class="cls-3" d="M268.538,242.167 L279.914,242.366 L279.914,272.047 L268.660,272.047 L268.538,242.167 ZM243.340,241.734 L243.340,218.339 L308.048,218.339 L308.048,329.996 L243.340,329.996 L243.340,305.260 L281.321,305.968 L281.321,297.488 L243.340,296.924 L243.340,269.042 L243.340,241.734 ZM205.359,217.301 L205.359,297.488 L232.086,297.488 L232.086,217.301 L205.359,217.301 ZM205.359,208.103 L205.359,183.004 L232.086,183.004 L232.086,208.103 L205.359,208.103 ZM167.410,241.559 L166.751,271.964 L154.718,272.047 L154.718,240.953 L167.410,241.559 ZM127.991,297.488 L195.512,297.488 L194.106,183.004 L166.777,183.004 L166.194,216.719 L127.991,216.925 L127.991,297.488 ZM344.313,241.740 L355.875,240.953 L355.875,272.047 L343.913,272.512 L344.313,241.740 ZM316.488,218.339 L384.009,218.339 L384.009,329.996 L316.488,329.996 L316.781,306.412 L355.875,305.968 L355.875,297.488 L316.896,297.208 L316.488,218.339 Z"/></g></svg>